<svg width="20" height="20" viewBox="0 0 20 20" fill="none" xmlns="http://www.w3.org/2000/svg">
  <rect width="20" height="20" rx="5" fill="#1C8B6A"/>
  <path d="M11.0614 9.99634L13.1045 7.94562C13.2469 7.80265 13.325 7.61316 13.325 7.41249C13.325 7.21181 13.2469 7.02232 13.1045 6.87935C12.8205 6.59513 12.3271 6.59513 12.0431 6.87935L10 8.93093L7.95609 6.87935C7.67207 6.59513 7.17868 6.59513 6.89466 6.87935C6.75308 7.02232 6.675 7.21181 6.675 7.41249C6.675 7.61316 6.75308 7.80265 6.89466 7.94562L8.93771 9.99634L6.89466 12.0471C6.75308 12.19 6.675 12.3795 6.675 12.5802C6.675 12.7809 6.75308 12.9703 6.89466 13.1133C7.17868 13.3975 7.67207 13.3975 7.95609 13.1133L10 11.0617L12.0431 13.1133C12.1855 13.2554 12.3734 13.3338 12.5742 13.3338C12.775 13.3338 12.9629 13.2554 13.1045 13.1133C13.2469 12.9703 13.325 12.7809 13.325 12.5802C13.325 12.3795 13.2469 12.19 13.1045 12.0471L11.0614 9.99634Z" fill="white"/>
</svg>
