<svg width="86" height="55" viewBox="0 0 86 55" fill="none" xmlns="http://www.w3.org/2000/svg">
<path d="M15.1588 34.292V31.1096H16.1694C16.6796 31.1096 17.0926 30.6966 17.0926 30.1865V27.0284C17.0926 26.5182 16.6796 26.1052 16.1694 26.1052H4.14919C3.63904 26.1052 3.22605 26.5182 3.22605 27.0284V30.1865C3.22605 30.6966 3.63904 31.1096 4.14919 31.1096H5.15979V34.292L0.728717 41.3516C0.383755 41.9055 0.403189 42.61 0.782162 43.1444L8.84748 54.4893C9.00782 54.7128 9.21188 54.8829 9.44024 54.9995V42.5031C9.00296 42.2504 8.70658 41.784 8.70658 41.2447C8.70658 40.4382 9.35764 39.7871 10.1642 39.7871C10.9707 39.7871 11.6218 40.4382 11.6218 41.2447C11.6218 41.784 11.3254 42.2553 10.8881 42.5031V54.9946C11.1165 54.8829 11.3205 54.7128 11.4809 54.4845L19.5462 43.1396C19.9252 42.61 19.9446 41.9006 19.5996 41.3467L15.1588 34.292Z" fill="#1C8B6A"/>
<path d="M9.67889 26.5475V17.4668H9.67404C9.88296 12.098 0.0539551 8.38599 0.0539551 8.38599V17.4668H0.0588137C-0.150107 22.8355 9.67889 26.5475 9.67889 26.5475Z" fill="#1C8B6A"/>
<path d="M11.2196 13.2738L11.2147 26.5475C11.2147 26.5475 25.5817 21.1253 25.2756 13.2738H25.2804V0C25.2804 0 10.9135 5.42223 11.2196 13.2738Z" fill="#1C8B6A"/>
<path d="M31.6762 46.2367V44.737L37.0796 44.7296V49.4641C36.2488 50.1257 35.3961 50.6256 34.5139 50.9564C33.6317 51.2873 32.7274 51.4564 31.8011 51.4564C30.544 51.4564 29.4119 51.1843 28.3826 50.655C27.3534 50.1257 26.5889 49.3391 26.0669 48.3246C25.5449 47.3101 25.2803 46.1779 25.2803 44.9208C25.2803 43.6784 25.5376 42.5242 26.0595 41.4435C26.5815 40.3702 27.324 39.5688 28.3018 39.0469C29.2795 38.5249 30.397 38.2603 31.6688 38.2603C32.5878 38.2603 33.4258 38.4073 34.1683 38.7087C34.9109 39.0101 35.499 39.4218 35.918 39.9585C36.3444 40.4951 36.6605 41.1862 36.8811 42.0463L35.3593 42.4654C35.1682 41.8184 34.9329 41.3038 34.6462 40.9362C34.3595 40.5687 33.9551 40.2672 33.4258 40.0467C32.8965 39.8261 32.3157 39.7085 31.6688 39.7085C30.8969 39.7085 30.2279 39.8261 29.6692 40.0614C29.1105 40.2966 28.6547 40.6054 28.3091 40.9877C27.9636 41.37 27.6989 41.789 27.5078 42.2522C27.1843 43.0388 27.0226 43.8989 27.0226 44.8179C27.0226 45.9574 27.2211 46.9057 27.6107 47.6703C28.0004 48.4348 28.5738 49.0009 29.3236 49.3759C30.0735 49.7508 30.8675 49.9346 31.7056 49.9346C32.4334 49.9346 33.1465 49.7949 33.8449 49.5155C34.5433 49.2362 35.0652 48.9348 35.4255 48.6186V46.2441H31.6762V46.2367Z" fill="#424242"/>
<path d="M39.5504 51.2433V38.4883H41.278L47.9753 48.5011V38.4883H49.5927V51.2433H47.8577L41.1604 41.2231V51.2433H39.5504Z" fill="#424242"/>
<path d="M51.8629 47.141L53.4582 47.0013C53.5317 47.6409 53.7082 48.1628 53.9875 48.5745C54.2669 48.9862 54.6933 49.317 55.2741 49.567C55.8548 49.8169 56.5091 49.9419 57.2296 49.9419C57.8765 49.9419 58.4426 49.8464 58.9351 49.6552C59.4277 49.4641 59.7953 49.1994 60.0379 48.8686C60.2805 48.5378 60.3981 48.1702 60.3981 47.7732C60.3981 47.3762 60.2805 47.0233 60.0526 46.7219C59.8247 46.4205 59.4351 46.1706 58.9057 45.9721C58.5602 45.8397 57.803 45.6339 56.6341 45.3472C55.4652 45.0605 54.6418 44.8032 54.1713 44.5532C53.5611 44.2371 53.1053 43.8401 52.8113 43.3623C52.5172 42.8844 52.3628 42.3624 52.3628 41.7743C52.3628 41.1274 52.5466 40.5319 52.9142 39.9658C53.2818 39.4071 53.8111 38.9807 54.5168 38.694C55.2226 38.4073 56.0019 38.2603 56.8546 38.2603C57.803 38.2603 58.6337 38.4146 59.3542 38.7161C60.0746 39.0175 60.6334 39.4659 61.023 40.0614C61.4126 40.6495 61.6185 41.3259 61.6479 42.0684L60.0305 42.1934C59.9423 41.3847 59.6482 40.7818 59.1483 40.3628C58.6484 39.9438 57.9059 39.7453 56.9282 39.7453C55.9063 39.7453 55.1638 39.9291 54.6933 40.304C54.2228 40.6789 53.9949 41.1274 53.9949 41.6567C53.9949 42.1125 54.1566 42.4948 54.4874 42.7888C54.8109 43.0829 55.6637 43.3843 57.0311 43.7004C58.4058 44.0092 59.3468 44.2812 59.8541 44.5165C60.5966 44.862 61.1406 45.2884 61.5008 45.8177C61.8537 46.3396 62.0302 46.9498 62.0302 47.6335C62.0302 48.3099 61.839 48.9495 61.4494 49.5523C61.0598 50.1551 60.501 50.6183 59.7732 50.9564C59.0454 51.2873 58.2294 51.4564 57.3178 51.4564C56.1636 51.4564 55.1932 51.2873 54.4139 50.9491C53.6346 50.6109 53.0245 50.1037 52.576 49.4273C52.1202 48.7583 51.885 47.9938 51.8629 47.141Z" fill="#424242"/>
<path d="M64.1337 40.2894V38.4883H65.6996V40.2894H64.1337ZM64.1337 51.2433V42.0023H65.6996V51.2433H64.1337Z" fill="#424242"/>
<path d="M67.7941 52.0077L69.3159 52.2356C69.3821 52.7061 69.5585 53.0443 69.8452 53.2649C70.2349 53.5516 70.7642 53.6986 71.4405 53.6986C72.1683 53.6986 72.7271 53.5516 73.1167 53.2649C73.5137 52.9782 73.7783 52.5665 73.918 52.0445C73.9989 51.7284 74.0356 51.0594 74.0283 50.0375C73.3446 50.8462 72.4918 51.2505 71.4699 51.2505C70.1981 51.2505 69.213 50.7947 68.522 49.8758C67.8236 48.9568 67.478 47.8614 67.478 46.5749C67.478 45.6927 67.6398 44.8767 67.9559 44.1342C68.272 43.3917 68.7351 42.8109 69.3453 42.4066C69.9482 42.0022 70.6613 41.7964 71.4846 41.7964C72.5727 41.7964 73.4769 42.2375 74.1827 43.1197V42.0096H75.6236V50.0008C75.6236 51.4417 75.4766 52.4562 75.1825 53.059C74.8884 53.6619 74.4253 54.1324 73.793 54.4779C73.1608 54.8234 72.3742 54.9998 71.4479 54.9998C70.3451 54.9998 69.4556 54.7499 68.7793 54.2573C68.0956 53.7501 67.7721 53.0002 67.7941 52.0077ZM69.088 46.4573C69.088 47.6703 69.3306 48.5525 69.8085 49.1112C70.2863 49.6699 70.8965 49.9493 71.617 49.9493C72.3374 49.9493 72.9403 49.6699 73.4255 49.1186C73.9107 48.5672 74.1533 47.6924 74.1533 46.5161C74.1533 45.384 73.9033 44.5312 73.4034 43.9578C72.9035 43.3843 72.3007 43.0976 71.5876 43.0976C70.8892 43.0976 70.301 43.377 69.8158 43.943C69.3306 44.5018 69.088 45.3399 69.088 46.4573Z" fill="#424242"/>
<path d="M77.9922 51.2432V42.0022H79.4037V43.3182C80.08 42.3036 81.0651 41.7964 82.3443 41.7964C82.903 41.7964 83.4103 41.8993 83.8808 42.0978C84.344 42.2963 84.6968 42.561 84.9321 42.8844C85.1673 43.2079 85.3291 43.5975 85.4173 44.0386C85.4761 44.3253 85.5055 44.8326 85.5055 45.5604V51.2432H83.9396V45.6192C83.9396 44.9796 83.8808 44.5018 83.7558 44.1857C83.6309 43.8695 83.4177 43.6196 83.1089 43.4284C82.8001 43.2373 82.4325 43.1491 82.0135 43.1491C81.3445 43.1491 80.7711 43.3623 80.2859 43.7813C79.8007 44.2077 79.5581 45.009 79.5581 46.1926V51.2358H77.9922V51.2432Z" fill="#424242"/>
</svg>
